<svg xmlns="http://www.w3.org/2000/svg" width="30" height="33" viewBox="0 0 30 33">
    <g fill="none" fill-rule="evenodd">
        <ellipse cx="14.964" cy="31.821" fill="#000" fill-opacity=".15" rx="8.25" ry="1.179"/>
        <path fill="#333" d="M16.732 23.997v7.824h-3.536v-7.779C5.792 23.412 0 18.276 0 12.054 0 5.407 6.609 0 14.732 0c8.124 0 14.732 5.407 14.732 12.054 0 6.092-5.551 11.142-12.732 11.943z"/>
        <path fill="#FFF" d="M14.732 2.679c-6.646 0-12.053 4.205-12.053 9.375s5.407 9.375 12.053 9.375c6.647 0 12.054-4.206 12.054-9.375 0-5.17-5.407-9.375-12.054-9.375"/>
        <path fill="#DA1A32" d="M14.892 5.774l3.401 6.07-3.4 6.07-3.402-6.07 3.401-6.07zm-6.802 0l3.401 6.07-3.401 6.07-3.4-6.07 3.4-6.07zm13.605 0l3.4 6.07-3.4 6.07-3.401-6.07 3.4-6.07z"/>
    </g>
</svg>
