<svg width="58" height="36" viewBox="0 0 58 36" xmlns="http://www.w3.org/2000/svg" xmlns:xlink="http://www.w3.org/1999/xlink">
    <defs>
        <path d="M44 0H4a4 4 0 0 0-4 4v19h48V4a4 4 0 0 0-4-4z" id="gapgvt13ha"/>
    </defs>
    <g fill="none" fill-rule="evenodd">
        <path d="M46 7H6a6 6 0 0 0-6 6v19a2 2 0 0 0 2 2h48a2 2 0 0 0 2-2V13a6 6 0 0 0-6-6" fill="#222"/>
        <g transform="translate(2 9)">
            <mask id="rekdlvek7b" fill="#fff">
                <use xlink:href="#gapgvt13ha"/>
            </mask>
            <use fill="#1E4F9C" xlink:href="#gapgvt13ha"/>
            <path fill="#FFF" mask="url(#rekdlvek7b)" d="M18 0h30v2H18z"/>
            <path d="M19.571 17c1.5.625 2.429 1.5 2.429 2.5 0 1.333-.667 2.5-2 3.5H0v-7h48v4h-3a3 3 0 0 1-3-3z" fill="#E55302" mask="url(#rekdlvek7b)"/>
        </g>
        <path d="M14 26H2v6h18c.667-.571 1-1.429 1-2.571C21 27.714 18 26 14 26z" fill="#FFF"/>
        <path d="M12 32a4 4 0 1 0 8 0 4 4 0 0 0-8 0M35 32a4 4 0 1 0 8 0 4 4 0 0 0-8 0M4 11h40v14H4zM45 11h5v17h-3a2 2 0 0 1-2-2V11z" fill="#222"/>
    </g>
</svg>
