<svg width="22" height="34" viewBox="0 0 22 34" xmlns="http://www.w3.org/2000/svg">
    <g transform="translate(0 .844)" fill="none" fill-rule="evenodd">
        <ellipse fill-opacity=".15" fill="#000" cx="11" cy="32" rx="7" ry="1"/>
        <path d="M3 22a2 2 0 0 1-2-2V3a2 2 0 0 1 2-2h16a2 2 0 0 1 2 2v17a2 2 0 0 1-2 2h-6v10H9V22H3z" fill="#292E30"/>
        <path d="M14.697 14.353a.73.73 0 0 0-.723.719c0 .39.33.718.723.718a.73.73 0 0 0 .723-.718.73.73 0 0 0-.723-.719zm.145-8.189c-.063-.186-.166-.451-.393-.595-.227-.145-1.033-.288-3.493-.288-2.459 0-3.265.143-3.492.288-.227.144-.33.41-.393.595.558-.165 1.819-.268 3.885-.268 2.067 0 3.328.103 3.886.268zM7.278 15.79A.73.73 0 0 0 8 15.072a.73.73 0 0 0-.723-.719.73.73 0 0 0-.724.719c0 .39.33.718.724.718zm8.08-2.75c.041-.082.103-.616.103-1.108 0-1.725-.185-4.27-.434-4.824-.103-.206-1.323-.39-4.07-.39-2.749 0-3.969.184-4.072.39-.248.554-.434 3.1-.434 4.824 0 .492.063 1.026.103 1.108.125.226 2.109.43 4.402.43 2.295 0 4.277-.204 4.402-.43zm-7.564 4.864c0 .185-.165.35-.33.35h-.972c-.185 0-.33-.165-.33-.35v-1.046h-.268c-.145 0-.248-.102-.27-.246-.081-.534-.226-1.91-.226-3.47 0-2.381.122-4.576.455-6.014.246-1.129.598-1.908 1.012-2.175.351-.206 1.343-.432 4.091-.432s3.741.226 4.092.432c.413.267.764 1.046 1.013 2.175.329 1.438.454 3.633.454 6.015 0 1.56-.144 2.935-.228 3.469-.02.144-.123.246-.268.246h-.269v1.046c0 .185-.145.35-.33.35h-.971c-.165 0-.33-.165-.33-.35v-1.046H7.793v1.046z" fill="#FFF"/>
    </g>
</svg>
